HIERARCHY
ROOT hip
{
  OFFSET 0 0 0
  CHANNELS 6 Xposition Yposition Zposition Zrotation Yrotation Xrotation
  JOINT abdomen
  {
    OFFSET 0 20.6881 -0.73152
    CHANNELS 3 Zrotation Xrotation Yrotation
    JOINT chest
    {
      OFFSET 0 11.7043 -0.48768
      CHANNELS 3 Zrotation Xrotation Yrotation
      JOINT neck
      {
        OFFSET 0 22.1894 -2.19456
        CHANNELS 3 Zrotation Xrotation Yrotation
        JOINT head
        {
          OFFSET -0.24384 7.07133 1.2192
          CHANNELS 3 Zrotation Xrotation Yrotation
          JOINT leftEye
          {
            OFFSET 4.14528 8.04674 8.04672
            CHANNELS 3 Zrotation Xrotation Yrotation
            End Site
            {
              OFFSET 1 0 0
            }
          }
          JOINT rightEye
          {
            OFFSET -3.6576 8.04674 8.04672
            CHANNELS 3 Zrotation Xrotation Yrotation
            End Site
            {
              OFFSET 1 0 0
            }
          }
        }
      }
      JOINT rCollar
      {
        OFFSET -2.68224 19.2634 -4.8768
        CHANNELS 3 Zrotation Xrotation Yrotation
        JOINT rShldr
        {
          OFFSET -8.77824 -1.95073 1.46304
          CHANNELS 3 Zrotation Xrotation Yrotation
          JOINT rForeArm
          {
            OFFSET -28.1742 -1.7115 0.48768
            CHANNELS 3 Zrotation Xrotation Yrotation
            JOINT rHand
            {
              OFFSET -22.5879 0.773209 7.07136
              CHANNELS 3 Zrotation Xrotation Yrotation
              JOINT rThumb1
              {
                OFFSET -1.2192 -0.487915 3.41376
                CHANNELS 3 Zrotation Xrotation Yrotation
                JOINT rThumb2
                {
                  OFFSET -3.37035 -0.52449 3.41376
                  CHANNELS 3 Zrotation Xrotation Yrotation
                  End Site
                  {
                    OFFSET -1.78271 -1.18214 1.43049
                  }
                }
              }
              JOINT rIndex1
              {
                OFFSET -7.75947 0.938293 5.60832
                CHANNELS 3 Zrotation Xrotation Yrotation
                JOINT rIndex2
                {
                  OFFSET -2.54057 -0.884171 1.56538
                  CHANNELS 3 Zrotation Xrotation Yrotation
                  End Site
                  {
                    OFFSET -1.62519 -0.234802 1.16502
                  }
                }
              }
              JOINT rMid1
              {
                OFFSET -8.24714 1.18213 3.41376
                CHANNELS 3 Zrotation Xrotation Yrotation
                JOINT rMid2
                {
                  OFFSET -3.10165 -0.590103 1.0647
                  CHANNELS 3 Zrotation Xrotation Yrotation
                  End Site
                  {
                    OFFSET -2.48547 -0.328903 0.83742
                  }
                }
              }
              JOINT rRing1
              {
                OFFSET -8.82822 0.546677 1.51678
                CHANNELS 3 Zrotation Xrotation Yrotation
                JOINT rRing2
                {
                  OFFSET -2.60934 -0.819778 -0.0198488
                  CHANNELS 3 Zrotation Xrotation Yrotation
                  End Site
                  {
                    OFFSET -2.33842 -0.294052 0.168128
                  }
                }
              }
              JOINT rPinky1
              {
                OFFSET -8.27202 -0.0477905 -0.4584
                CHANNELS 3 Zrotation Xrotation Yrotation
                JOINT rPinky2
                {
                  OFFSET -1.82734 -0.647385 -0.700984
                  CHANNELS 3 Zrotation Xrotation Yrotation
                  End Site
                  {
                    OFFSET -1.69225 -0.51767 -0.607171
                  }
                }
              }
            }
          }
        }
      }
      JOINT lCollar
      {
        OFFSET 2.68224 19.2634 -4.8768
        CHANNELS 3 Zrotation Xrotation Yrotation
        JOINT lShldr
        {
          OFFSET 8.77824 -1.95073 1.46304
          CHANNELS 3 Zrotation Xrotation Yrotation
          JOINT lForeArm
          {
            OFFSET 28.1742 -1.7115 0.48768
            CHANNELS 3 Zrotation Xrotation Yrotation
            JOINT lHand
            {
              OFFSET 22.5879 0.773209 7.07136
              CHANNELS 3 Zrotation Xrotation Yrotation
              JOINT lThumb1
              {
                OFFSET 1.2192 -0.487915 3.41376
                CHANNELS 3 Zrotation Xrotation Yrotation
                JOINT lThumb2
                {
                  OFFSET 3.37035 -0.52449 3.41376
                  CHANNELS 3 Zrotation Xrotation Yrotation
                  End Site
                  {
                    OFFSET 1.78271 -1.18214 1.43049
                  }
                }
              }
              JOINT lIndex1
              {
                OFFSET 7.75947 0.938293 5.60832
                CHANNELS 3 Zrotation Xrotation Yrotation
                JOINT lIndex2
                {
                  OFFSET 2.54057 -0.884171 1.56538
                  CHANNELS 3 Zrotation Xrotation Yrotation
                  End Site
                  {
                    OFFSET 1.62519 -0.234802 1.16502
                  }
                }
              }
              JOINT lMid1
              {
                OFFSET 8.24714 1.18213 3.41376
                CHANNELS 3 Zrotation Xrotation Yrotation
                JOINT lMid2
                {
                  OFFSET 3.10165 -0.590103 1.0647
                  CHANNELS 3 Zrotation Xrotation Yrotation
                  End Site
                  {
                    OFFSET 2.48547 -0.328903 0.83742
                  }
                }
              }
              JOINT lRing1
              {
                OFFSET 8.82822 0.546677 1.51678
                CHANNELS 3 Zrotation Xrotation Yrotation
                JOINT lRing2
                {
                  OFFSET 2.60934 -0.819778 -0.0198488
                  CHANNELS 3 Zrotation Xrotation Yrotation
                  End Site
                  {
                    OFFSET 2.33842 -0.294052 0.168128
                  }
                }
              }
              JOINT lPinky1
              {
                OFFSET 8.27202 -0.0477905 -0.4584
                CHANNELS 3 Zrotation Xrotation Yrotation
                JOINT lPinky2
                {
                  OFFSET 1.82734 -0.647385 -0.700984
                  CHANNELS 3 Zrotation Xrotation Yrotation
                  End Site
                  {
                    OFFSET 1.69225 -0.51767 -0.607171
                  }
                }
              }
            }
          }
        }
      }
    }
  }
  JOINT rButtock
  {
    OFFSET -8.77824 4.35084 1.2192
    CHANNELS 3 Zrotation Xrotation Yrotation
    JOINT rThigh
    {
      OFFSET 0 -1.70687 -2.19456
      CHANNELS 3 Zrotation Xrotation Yrotation
      JOINT rShin
      {
        OFFSET 0 -36.8199 0.73152
        CHANNELS 3 Zrotation Xrotation Yrotation
        JOINT rFoot
        {
          OFFSET 0.73152 -45.1104 -5.12064
          CHANNELS 3 Zrotation Xrotation Yrotation
          End Site
          {
            OFFSET -1.1221 -3.69964 12.103
          }
        }
      }
    }
  }
  JOINT lButtock
  {
    OFFSET 8.77824 4.35084 1.2192
    CHANNELS 3 Zrotation Xrotation Yrotation
    JOINT lThigh
    {
      OFFSET 0 -1.70687 -2.19456
      CHANNELS 3 Zrotation Xrotation Yrotation
      JOINT lShin
      {
        OFFSET 0 -36.8199 0.73152
        CHANNELS 3 Zrotation Xrotation Yrotation
        JOINT lFoot
        {
          OFFSET -0.73152 -45.1104 -5.12064
          CHANNELS 3 Zrotation Xrotation Yrotation
          End Site
          {
            OFFSET 1.1221 -3.69964 12.103
          }
        }
      }
    }
  }
}
MOTION
Frames:	4
Frame Time:	0.03333
-0.9422425180673599 -5.455048754811287 -1.7921212129294872 -1.3523157835006714 -2.118306875228882 4.7802581787109375 -4.8513641357421875 2.689872980117798 -0.2606090307235718 4.116487979888916 -5.489322185516357 -0.04681049659848213 -11.054847717285156 16.26367950439453 -13.653219223022461 17.021310806274414 -11.856298446655273 -25.42237091064453 -0.0008664511260576546 0.026034174486994743 0.27470070123672485 -0.33791854977607727 0.16388560831546783 -0.011718417517840862 0.04803231731057167 -0.3685448467731476 -0.008735354989767075 72.9417724609375 39.69655227661133 -2.8460564613342285 -14.856659889221191 -7.527839660644531 26.942289352416992 0.06477151811122894 -0.47318559885025024 0.04213482886552811 -0.057424385100603104 -0.05732504650950432 0.3603515326976776 0.06680409610271454 0.21034397184848785 0.05123152956366539 -0.2907261550426483 -0.10286857932806015 -0.06001008674502373 7.485778331756592 5.370758056640625 0.12443336844444275 -0.12005176395177841 0.09745939075946808 0.1552003175020218 2.931030511856079 0.9965614676475525 0.03563392534852028 0.13052156567573547 -0.2325606495141983 0.050031401216983795 10.48443603515625 0.5889230370521545 -0.09528353065252304 0.12566037476062775 -0.1563745141029358 0.34653016924858093 1.9825953245162964 -0.8396090269088745 -0.23935776948928833 -0.11209465563297272 0.30832529067993164 0.10672808438539505 -75.63689422607422 30.6190185546875 -9.914973258972168 11.799482345581055 -5.329638481140137 -21.28443145751953 1.3653161525726318 32.25722122192383 -5.103097915649414 -0.21911318600177765 0.16517363488674164 0.16183973848819733 0.03412630036473274 -0.13731496036052704 -0.33465802669525146 -0.31802257895469666 -0.20322833955287933 -0.24947626888751984 -7.772796630859375 5.435419082641602 -0.3270057141780853 0.1632656306028366 0.049644071608781815 -0.3003026843070984 -2.9102821350097656 0.9312527179718018 0.0993485078215599 0.05112795904278755 -0.15168336033821106 0.0474737323820591 -10.161876678466797 0.8033774495124817 -0.16332122683525085 0.0982334092259407 -0.06373170763254166 -0.173224076628685 -2.2417666912078857 -0.9941751956939697 0.08156757801771164 0.052145715802907944 -0.10669293999671936 -0.08846133947372437 -8.634881973266602 -23.773801803588867 9.6612548828125 -0.2358245998620987 32.0097541809082 0.897148847579956 -1.9760867357254028 -7.188666343688965 -13.049755096435547 -0.16774140298366547 0.11499781906604767 0.06037106364965439 5.981805801391602 -16.584505081176758 -3.172811269760132 -0.1055658608675003 30.735443115234375 -1.014914870262146 2.8449997901916504 -8.863052368164062 17.55595588684082
-0.9691910818219185 -5.420340970158577 -1.833081990480423 -1.5164748430252075 -2.528862476348877 4.478440284729004 -4.482490539550781 2.662100315093994 -0.3096667230129242 4.037365913391113 -5.513443946838379 0.08732426911592484 -11.165204048156738 16.232200622558594 -13.341022491455078 16.665531158447266 -11.54806137084961 -25.13014030456543 -0.05060513690114021 0.04466136172413826 0.2642253041267395 -0.3563704788684845 0.1444631814956665 -0.02742764726281166 0.04248833283782005 -0.3708532750606537 0.05318271741271019 72.43133544921875 39.56639099121094 -2.6818997859954834 -14.849885940551758 -7.755727291107178 27.373727798461914 0.0893678069114685 -0.9202395677566528 -0.08744525909423828 -0.10853179544210434 -0.1299603432416916 0.26178500056266785 -0.1529662162065506 0.18686240911483765 -0.05648808926343918 -0.2231695055961609 -0.08347435295581818 -0.0502622164785862 7.5231499671936035 5.422179698944092 0.14442087709903717 -0.20543934404850006 0.07725340127944946 0.1473371982574463 2.939934730529785 1.0727406740188599 0.0892125591635704 0.16051113605499268 -0.2573559284210205 0.09375081211328506 10.604366302490234 0.5146420001983643 -0.11143118143081665 0.16705222427845 -0.21812644600868225 0.42103737592697144 1.9729030132293701 -0.7159450054168701 -0.21477073431015015 -0.1806260049343109 0.3226756155490875 0.08713395148515701 -75.2682876586914 31.17620277404785 -10.250762939453125 11.897810935974121 -5.481006145477295 -21.455062866210938 1.223852515220642 32.12114715576172 -5.020312309265137 -0.2924116849899292 0.23130452632904053 0.163609579205513 0.088657908141613 -0.11111366003751755 -0.21478182077407837 -0.2804133892059326 -0.2585975229740143 -0.26079168915748596 -7.719603061676025 5.3654866218566895 -0.35063299536705017 0.23390626907348633 -0.03146308287978172 -0.3500666916370392 -2.9658145904541016 0.9058519601821899 0.021005216985940933 -0.09956216812133789 -0.20683445036411285 0.19295234978199005 -10.007444381713867 0.8618167638778687 -0.18672651052474976 0.2755643129348755 -0.03369750827550888 -0.19828911125659943 -2.195420980453491 -0.9888486862182617 0.09869477897882462 0.04725359007716179 -0.12453150004148483 -0.12230376154184341 -8.626253128051758 -24.34821319580078 9.11096477508545 -0.2252514362335205 33.14463806152344 0.9845607280731201 -1.8776438236236572 -7.242125988006592 -13.04293155670166 -0.22522561252117157 0.1454928070306778 -0.0738917738199234 6.192165851593018 -16.385440826416016 -2.61818790435791 -0.10431580990552902 31.351768493652344 -1.0848859548568726 3.0704050064086914 -8.909451484680176 18.382587432861328
-0.9809423238039017 -5.44227696955204 -1.875675655901432 -2.2656643390655518 -2.0351579189300537 2.8591179847717285 -4.845921039581299 2.2551310062408447 -0.44032758474349976 4.210507392883301 -5.2129034996032715 0.000720759853720665 -11.257295608520508 16.3641357421875 -14.190789222717285 17.621139526367188 -10.212190628051758 -26.69563102722168 0.015527075156569481 0.03139756992459297 -0.00021463065058924258 -0.22534751892089844 0.28995808959007263 -0.07391553372144699 0.030210988596081734 -0.2843778431415558 0.05522238835692406 72.260986328125 40.71733474731445 -2.203782558441162 -15.43543815612793 -7.989053249359131 28.10477066040039 -0.09679930657148361 -1.4292645454406738 -0.1212611272931099 -0.0353827029466629 -0.1635618507862091 0.29092007875442505 -0.07064147293567657 0.1440601646900177 0.020604580640792847 -0.2411758303642273 -0.10658888518810272 -0.0624718964099884 7.674921989440918 5.1994428634643555 0.012452756986021996 -0.16130298376083374 0.18899977207183838 0.09664738178253174 2.9665021896362305 1.0728168487548828 -0.09792564809322357 0.20113234221935272 -0.18599094450473785 -0.042185086756944656 10.669500350952148 0.38422441482543945 -0.1953883022069931 0.17539504170417786 -0.35382646322250366 0.3515077531337738 2.0376391410827637 -0.6413857936859131 -0.04394257813692093 -0.04408988729119301 0.47233614325523376 0.09575234353542328 -77.85382843017578 30.84714126586914 -7.1328606605529785 11.992559432983398 -5.667806148529053 -21.646289825439453 1.2007848024368286 31.910335540771484 -4.899040222167969 -0.3602444529533386 0.13873924314975739 0.26916730403900146 0.0901520624756813 -0.17191770672798157 -0.2593628466129303 -0.22236956655979156 -0.3345887362957001 -0.1678186058998108 -7.830427169799805 5.381227970123291 -0.4022279977798462 0.17535151541233063 -0.047430962324142456 -0.15759070217609406 -2.9608285427093506 1.03529691696167 -0.10049641877412796 0.045265574008226395 -0.04372856393456459 0.04169394448399544 -10.132022857666016 0.6936147809028625 -0.2530135214328766 0.07348497956991196 -0.05475972220301628 -0.16889862716197968 -2.087211847305298 -0.9850462079048157 0.08958063274621964 0.15056081116199493 -0.04153452813625336 -0.0019611199386417866 -8.282551765441895 -23.374067306518555 9.747187614440918 -0.09862825274467468 32.32046127319336 1.0107002258300781 -1.6751502752304077 -7.333429336547852 -11.981098175048828 -0.026791756972670555 0.12378702312707901 -0.0772496908903122 6.108084678649902 -16.07438087463379 -3.0795509815216064 -0.11561987549066544 31.01912498474121 -0.9161718487739563 3.243257999420166 -9.217889785766602 18.36488151550293
-0.9919742122292519 -5.448468029499054 -1.9212160259485245 -2.3733577728271484 -1.3955215215682983 2.893221139907837 -5.180066108703613 2.1427409648895264 -0.8033839464187622 4.429659366607666 -5.170284271240234 -0.2394741326570511 -11.507099151611328 16.404361724853516 -14.549735069274902 18.340782165527344 -8.536219596862793 -27.470985412597656 -0.11800781637430191 -0.02082960121333599 0.06229357793927193 -0.32636281847953796 0.2968460023403168 -0.11770476400852203 0.05767223984003067 -0.2968933880329132 0.07778212428092957 72.5465087890625 41.74061584472656 -2.646123170852661 -16.115333557128906 -8.485891342163086 29.48172378540039 -0.22178687155246735 -2.6298089027404785 -0.3281363248825073 0.013051438145339489 -0.1482139676809311 0.37283965945243835 -0.12901510298252106 0.19575335085391998 0.08144882321357727 -0.23442809283733368 -0.1046600267291069 -0.08244358748197556 7.66636848449707 5.348704814910889 0.019462455064058304 -0.12516309320926666 0.23570066690444946 0.0274988804012537 2.8963968753814697 1.0375863313674927 -0.06588982790708542 0.09535378217697144 -0.0686044842004776 -0.20619148015975952 10.732343673706055 0.48970139026641846 -0.18781918287277222 0.11649007350206375 -0.24163687229156494 0.3153174817562103 2.184457778930664 -0.5849249958992004 -0.04842192679643631 0.001102528884075582 0.44066476821899414 0.10279520601034164 -78.08451080322266 30.637088775634766 -7.424907207489014 12.31611442565918 -5.823270320892334 -22.050872802734375 1.2696237564086914 31.023073196411133 -4.946952819824219 -0.29822680354118347 0.1358027309179306 0.2548052966594696 0.04043349251151085 -0.041349999606609344 -0.2675233781337738 -0.09947014600038528 -0.2613227069377899 -0.023434201255440712 -7.78590726852417 5.420242786407471 -0.426902174949646 0.11860740184783936 0.10761787742376328 -0.07197033613920212 -2.83475923538208 1.0526926517486572 -0.18590472638607025 0.06269177794456482 -0.02689172886312008 -0.07181507349014282 -10.153703689575195 0.7632184028625488 -0.2550843358039856 -0.060970161110162735 -0.03500725328922272 -0.08702374249696732 -2.03171968460083 -1.0380421876907349 0.02624841034412384 0.16161440312862396 -0.054403290152549744 0.010127502493560314 -8.58293628692627 -24.06702423095703 9.21961498260498 -0.11835279315710068 32.887454986572266 1.1089653968811035 -1.8222403526306152 -7.464240550994873 -11.7377290725708 0.059351686388254166 0.09129300713539124 -0.18481530249118805 6.197373867034912 -16.41440200805664 -3.426290512084961 0.060516200959682465 31.906219482421875 -0.9231126308441162 3.192031145095825 -9.623047828674316 18.007020950317383
